<svg width="36" height="36" viewBox="0 0 33.866664 33.866664" version="1.1" id="svg1" inkscape:version="1.3.2 (091e20e, 2023-11-25, custom)" sodipodi:docname="green.svg" xmlns:inkscape="http://www.inkscape.org/namespaces/inkscape" xmlns:sodipodi="http://sodipodi.sourceforge.net/DTD/sodipodi-0.dtd" xmlns:xlink="http://www.w3.org/1999/xlink" xmlns="http://www.w3.org/2000/svg" xmlns:svg="http://www.w3.org/2000/svg"><sodipodi:namedview id="namedview1" pagecolor="#000000" bordercolor="#ffffff" borderopacity="0.24705882" inkscape:showpageshadow="2" inkscape:pageopacity="0.0" inkscape:pagecheckerboard="0" inkscape:deskcolor="#000000" inkscape:document-units="mm" inkscape:zoom="3.6203867" inkscape:cx="-34.802912" inkscape:cy="49.027912" inkscape:window-width="1920" inkscape:window-height="991" inkscape:window-x="-9" inkscape:window-y="-9" inkscape:window-maximized="1" inkscape:current-layer="layer1"></sodipodi:namedview><defs id="defs1"><linearGradient id="linearGradient24" inkscape:collect="always"><stop style="stop-color:#65ff16;stop-opacity:1;" offset="0" id="stop23"></stop><stop style="stop-color:#65ff16;stop-opacity:0.54368931;" offset="1" id="stop24"></stop></linearGradient><linearGradient id="linearGradient22" inkscape:collect="always"><stop style="stop-color:#65ff16;stop-opacity:1;" offset="0" id="stop21"></stop><stop style="stop-color:#65ff16;stop-opacity:0.54509807;" offset="1" id="stop22"></stop></linearGradient><linearGradient id="linearGradient20" inkscape:collect="always"><stop style="stop-color:#65ff16;stop-opacity:1;" offset="0" id="stop19"></stop><stop style="stop-color:#b0ff16;stop-opacity:0.36862746;" offset="1" id="stop20"></stop></linearGradient><linearGradient id="linearGradient18" inkscape:collect="always"><stop style="stop-color:#65ff16;stop-opacity:1;" offset="0" id="stop17"></stop><stop style="stop-color:#b0ff16;stop-opacity:0.36893204;" offset="1" id="stop18"></stop></linearGradient><linearGradient id="linearGradient16" inkscape:collect="always"><stop style="stop-color:#ffe216;stop-opacity:1;" offset="0" id="stop15"></stop><stop style="stop-color:#ffe216;stop-opacity:0.53398061;" offset="1" id="stop16"></stop></linearGradient><linearGradient id="linearGradient14" inkscape:collect="always"><stop style="stop-color:#ffe216;stop-opacity:1;" offset="0" id="stop13"></stop><stop style="stop-color:#ffe216;stop-opacity:0.53333336;" offset="1" id="stop14"></stop></linearGradient><linearGradient id="linearGradient12" inkscape:collect="always"><stop style="stop-color:#ffe216;stop-opacity:1;" offset="0" id="stop11"></stop><stop style="stop-color:#ffe216;stop-opacity:0.36862746;" offset="1" id="stop12"></stop></linearGradient><linearGradient id="linearGradient10" inkscape:collect="always"><stop style="stop-color:#ffe216;stop-opacity:1;" offset="0" id="stop9"></stop><stop style="stop-color:#ffe216;stop-opacity:0.36893204;" offset="1" id="stop10"></stop></linearGradient><linearGradient id="linearGradient6" inkscape:collect="always"><stop style="stop-color:#6ad8d8;stop-opacity:1;" offset="0" id="stop7"></stop><stop style="stop-color:#45d0ba;stop-opacity:0.63921571;" offset="1" id="stop8"></stop></linearGradient><linearGradient id="linearGradient4" inkscape:collect="always"><stop style="stop-color:#6ad8d8;stop-opacity:1;" offset="0" id="stop5"></stop><stop style="stop-color:#45d0ba;stop-opacity:0.64077669;" offset="1" id="stop6"></stop></linearGradient><linearGradient id="linearGradient2" inkscape:collect="always"><stop style="stop-color:#6ad8d8;stop-opacity:1;" offset="0" id="stop3"></stop><stop style="stop-color:#45d0ba;stop-opacity:0.36862746;" offset="1" id="stop4"></stop></linearGradient><linearGradient id="linearGradient1" inkscape:collect="always"><stop style="stop-color:#6ad8d8;stop-opacity:1;" offset="0" id="stop1"></stop><stop style="stop-color:#45d0ba;stop-opacity:0.36893204;" offset="1" id="stop2"></stop></linearGradient><linearGradient id="linearGradient30" inkscape:collect="always"><stop style="stop-color:#ffffff;stop-opacity:0;" offset="0" id="stop30"></stop><stop style="stop-color:#ffffff;stop-opacity:0;" offset="1" id="stop31"></stop></linearGradient><inkscape:path-effect effect="bspline" id="path-effect10" is_visible="true" lpeversion="1.3" weight="33.333333" steps="2" helper_size="0" apply_no_weight="true" apply_with_weight="true" only_selected="false" uniform="false"></inkscape:path-effect><radialGradient inkscape:collect="always" xlink:href="#linearGradient30" id="radialGradient31-5" cx="595.88141" cy="327.27814" fx="595.88141" fy="327.27814" r="69.828918" gradientTransform="matrix(0.22429948,0,0,0.15605842,-79.783444,24.484699)" gradientUnits="userSpaceOnUse"></radialGradient><radialGradient inkscape:collect="always" xlink:href="#linearGradient30" id="radialGradient38" gradientUnits="userSpaceOnUse" gradientTransform="matrix(0.1385449,0,0,0.1007676,-67.409965,-15.348747)" cx="595.88141" cy="327.27814" fx="595.88141" fy="327.27814" r="69.828918"></radialGradient><radialGradient inkscape:collect="always" xlink:href="#linearGradient1" id="radialGradient2" cx="16.972334" cy="16.967651" fx="16.972334" fy="16.967651" r="16.98557" gradientTransform="matrix(1,0,0,0.99955941,0,0.00747583)" gradientUnits="userSpaceOnUse"></radialGradient><radialGradient inkscape:collect="always" xlink:href="#linearGradient2" id="radialGradient4" cx="15.386896" cy="17.620652" fx="15.386896" fy="17.620652" r="9.8901166" gradientTransform="matrix(1,0,0,0.70982704,0,5.1130368)" gradientUnits="userSpaceOnUse"></radialGradient><radialGradient inkscape:collect="always" xlink:href="#linearGradient4" id="radialGradient6" cx="14.060019" cy="20.305685" fx="14.060019" fy="20.305685" r="12.125779" gradientTransform="matrix(1,0,0,0.86170446,0,2.8081858)" gradientUnits="userSpaceOnUse"></radialGradient><radialGradient inkscape:collect="always" xlink:href="#linearGradient6" id="radialGradient8" cx="9.3255087" cy="17.03575" fx="9.3255087" fy="17.03575" r="9.084856" gradientTransform="matrix(1,0,0,1.3697205,0,-6.2984655)" gradientUnits="userSpaceOnUse"></radialGradient><radialGradient inkscape:collect="always" xlink:href="#linearGradient14" id="radialGradient6-4" cx="14.060019" cy="20.305685" fx="14.060019" fy="20.305685" r="12.125779" gradientTransform="matrix(1,0,0,0.86170446,-44.685307,-9.3522122)" gradientUnits="userSpaceOnUse"></radialGradient><radialGradient inkscape:collect="always" xlink:href="#linearGradient16" id="radialGradient8-1" cx="9.3255091" cy="17.035749" fx="9.3255091" fy="17.035749" r="9.084856" gradientTransform="matrix(1,0,0,1.3697205,-44.685307,-18.458863)" gradientUnits="userSpaceOnUse"></radialGradient><radialGradient inkscape:collect="always" xlink:href="#linearGradient10" id="radialGradient2-2" cx="16.972334" cy="16.967651" fx="16.972334" fy="16.967651" r="16.985571" gradientTransform="matrix(1,0,0,0.99955941,-44.685307,-12.152922)" gradientUnits="userSpaceOnUse"></radialGradient><radialGradient inkscape:collect="always" xlink:href="#linearGradient12" id="radialGradient4-5" cx="15.386896" cy="17.620651" fx="15.386896" fy="17.620651" r="9.8901167" gradientTransform="matrix(1,0,0,0.70982704,-44.685307,-7.0473612)" gradientUnits="userSpaceOnUse"></radialGradient><radialGradient inkscape:collect="always" xlink:href="#linearGradient30" id="radialGradient38-4" gradientUnits="userSpaceOnUse" gradientTransform="matrix(0.1385449,0,0,0.1007676,-112.09527,-27.509145)" cx="595.88141" cy="327.27814" fx="595.88141" fy="327.27814" r="69.828918"></radialGradient><radialGradient inkscape:collect="always" xlink:href="#linearGradient22" id="radialGradient6-4-7" cx="14.060019" cy="20.305685" fx="14.060019" fy="20.305685" r="12.125779" gradientTransform="matrix(1,0,0,0.86170446,-98.92489,-33.693879)" gradientUnits="userSpaceOnUse"></radialGradient><radialGradient inkscape:collect="always" xlink:href="#linearGradient24" id="radialGradient8-1-1" cx="9.3255091" cy="17.035749" fx="9.3255091" fy="17.035749" r="9.084856" gradientTransform="matrix(1,0,0,1.3697205,-98.92489,-42.80053)" gradientUnits="userSpaceOnUse"></radialGradient><radialGradient inkscape:collect="always" xlink:href="#linearGradient18" id="radialGradient2-2-8" cx="16.972334" cy="16.967651" fx="16.972334" fy="16.967651" r="16.985571" gradientTransform="matrix(1,0,0,0.99955941,-98.92489,-36.494589)" gradientUnits="userSpaceOnUse"></radialGradient><radialGradient inkscape:collect="always" xlink:href="#linearGradient20" id="radialGradient4-5-7" cx="15.386896" cy="17.620651" fx="15.386896" fy="17.620651" r="9.8901167" gradientTransform="matrix(1,0,0,0.70982704,-98.92489,-31.389028)" gradientUnits="userSpaceOnUse"></radialGradient><radialGradient inkscape:collect="always" xlink:href="#linearGradient30" id="radialGradient38-4-0" gradientUnits="userSpaceOnUse" gradientTransform="matrix(0.1385449,0,0,0.1007676,-166.33485,-51.850812)" cx="595.88141" cy="327.27814" fx="595.88141" fy="327.27814" r="69.828918"></radialGradient></defs><g inkscape:label="Layer 1" inkscape:groupmode="layer" id="layer1"><g id="g26"><path style="fill:url(#radialGradient6);fill-opacity:1;fill-rule:evenodd;stroke:#ffffff;stroke-width:0.0193791;stroke-linejoin:round;stroke-opacity:0" d="M 23.797485,29.197101 26.176109,9.8665203 25.87924,30.744834 1.9439026,29.83708 Z" id="path31" sodipodi:nodetypes="ccccc"></path><path style="fill:#ffffff;fill-opacity:0;fill-rule:evenodd;stroke:#ffffff;stroke-width:0.0201627;stroke-linejoin:round;stroke-opacity:0" d="m -2.1267412,32.379361 c 0,0 -0.098098,0.113469 0.3467083,-0.265579 C -1.1493674,31.576363 10.387853,21.027931 10.387853,21.027931 l 6.790815,7.09894 L 29.851683,1.4308474 27.986597,4.5303862 16.509155,23.827514 10.4835,17.728422 Z" id="path32" sodipodi:nodetypes="csccccccc"></path><path style="fill:url(#radialGradient8);fill-opacity:1;fill-rule:evenodd;stroke:#ffffff;stroke-width:0.0172341;stroke-linejoin:round;stroke-opacity:0" d="M 3.3795764,7.2298261 1.7445074,29.470858 0.24926976,4.6006537 18.401758,6.493483 Z" id="path33" sodipodi:nodetypes="ccccc"></path><path style="fill:url(#radialGradient2);fill-opacity:1;fill-rule:evenodd;stroke:#ffffff;stroke-width:0.0201627;stroke-linejoin:round;stroke-opacity:0" d="M -0.00317223,33.935696 10.141553,13.220555 17.310493,20.14917 33.947841,-3.7426461e-4 17.175234,17.745366 10.006288,11.240951 Z" id="path34" sodipodi:nodetypes="ccccccc"></path><path style="fill:#ffffff;fill-opacity:0;fill-rule:evenodd;stroke:#ffffff;stroke-width:0.0201627;stroke-linejoin:round;stroke-opacity:0" d="m 2.7359983,27.973256 c 0.2028931,-0.2828 6.4249909,-6.857914 6.4249909,-6.857914 l 6.9660388,6.292314 8.048149,-15.907536" id="path35"></path><path style="color:#000000;fill:url(#radialGradient4);fill-rule:evenodd;stroke-width:0.0611409;stroke-linejoin:round;-inkscape-stroke:none" d="m 14.271963,21.575318 c -2.749277,-2.487368 -3.431875,-3.088516 -3.499927,-3.082296 -0.08445,0.0077 -0.9483648,0.905834 -4.1008615,4.263199 -0.6459165,0.687895 -1.1743946,1.239767 -1.1743946,1.226381 0,-0.02041 1.4145695,-1.991879 4.5812861,-6.384876 l 0.574504,-0.796976 3.294235,3.253806 c 2.405684,2.37616 3.317939,3.256411 3.382128,3.263467 0.0829,0.0091 0.466529,-0.322575 3.940765,-6.324129 2.026003,-3.499803 3.999928,-6.401203 4.007297,-6.393499 0.01347,0.01409 -7.522488,13.994661 -7.566219,14.040431 -0.01291,0.01348 -1.560348,-1.365996 -3.438813,-3.065508 z" id="path36" sodipodi:nodetypes="ssssscsssscs"></path><path style="color:#000000;fill:url(#radialGradient38);fill-opacity:0;fill-rule:evenodd;stroke-width:0.0611409;stroke-linejoin:round;-inkscape-stroke:none" d="m 24.783479,10.59398 c -7.9e-5,5.8e-5 -0.0047,0.0036 -0.0048,0.0038 -2.6e-4,2.88e-4 -0.0017,0.0028 -0.0024,0.0038 -0.0014,0.002 -0.003,0.0035 -0.0048,0.0063 -0.0036,0.0057 -0.0091,0.01445 -0.01568,0.02522 -0.0132,0.02155 -0.03159,0.05369 -0.0567,0.09585 -0.05021,0.08432 -0.124014,0.208759 -0.218359,0.369514 -0.188689,0.321509 -0.461174,0.786616 -0.796226,1.362032 -0.670102,1.150834 -1.59282,2.741009 -2.60583,4.490924 -1.737113,3.000769 -2.659088,4.591419 -3.157156,5.430475 -0.249033,0.419527 -0.391264,0.650391 -0.476528,0.775602 -0.04263,0.06261 -0.07216,0.09884 -0.09048,0.117285 -0.01832,0.01845 -0.02161,0.0178 -0.02292,0.01765 0.0078,8.39e-4 -0.0011,-8.39e-4 -0.01086,-0.0076 -0.0098,-0.0067 -0.02344,-0.0171 -0.04102,-0.03153 -0.03515,-0.02886 -0.08611,-0.07352 -0.152007,-0.133681 -0.131809,-0.120398 -0.326452,-0.304894 -0.594771,-0.563799 -0.536636,-0.517809 -1.365616,-1.331707 -2.568431,-2.51976 l -3.294685,-3.253744 a 0.02486107,0.0259891 0 0 0 -0.0374,0.0025 l -0.574247,0.797041 c -1.583362,2.196504 -2.7285547,3.788119 -3.4780596,4.832693 -0.3747522,0.522287 -0.6502743,0.907631 -0.8324177,1.164034 -0.091072,0.128202 -0.1589249,0.224227 -0.203882,0.288801 -0.022477,0.03228 -0.039365,0.05625 -0.050668,0.07315 -0.00568,0.0084 -0.010204,0.01524 -0.013268,0.02018 -0.00154,0.0025 -0.00247,0.0042 -0.00364,0.0063 -5.664e-4,0.001 -5.164e-4,0.0022 -0.00124,0.0038 -3.453e-4,7.75e-4 -0.00117,0.0036 -0.00124,0.0038 -4.32e-5,1.38e-4 -0.00241,0.0075 -0.00241,0.0076 0,5.3e-5 0.00241,0.01131 0.00241,0.01135 1.61e-5,3.5e-5 0.010828,0.01259 0.010859,0.01261 3.21e-5,1.8e-5 0.012014,0.0025 0.012063,0.0025 4.81e-5,0 0.00599,-0.0012 0.00605,-0.0013 1.279e-4,-3.3e-5 0.00587,-0.0012 0.00605,-0.0013 1.921e-4,-1.01e-4 0.00167,-0.0021 0.00241,-0.0025 0.00296,-0.0019 0.00488,-0.003 0.00724,-0.005 0.00476,-0.0041 0.011285,-0.0099 0.019302,-0.01765 0.016035,-0.01547 0.03887,-0.03898 0.068765,-0.06936 0.059791,-0.06076 0.1468715,-0.14987 0.253345,-0.261057 0.2129471,-0.222373 0.5057945,-0.532496 0.8287982,-0.876492 1.5762282,-1.678661 2.5801727,-2.742452 3.2005866,-3.387426 0.3102075,-0.322487 0.5254595,-0.539921 0.6671405,-0.677233 0.07084,-0.06865 0.123431,-0.117669 0.160452,-0.148814 0.01851,-0.01557 0.03298,-0.02582 0.04343,-0.03279 0.01045,-0.007 0.0187,-0.0092 0.01448,-0.0088 -0.0053,4.84e-4 -5.33e-4,-7.3e-5 0.0072,0.0038 0.0078,0.0039 0.01905,0.0102 0.03378,0.02018 0.02946,0.01996 0.07232,0.05269 0.130292,0.09963 0.115951,0.09389 0.29365,0.246595 0.554945,0.476711 0.522591,0.460233 1.3796,1.231956 2.754217,2.475621 0.93927,0.849789 1.796694,1.619784 2.420044,2.175468 0.311676,0.277843 0.564374,0.501705 0.740732,0.655794 0.08818,0.07705 0.157639,0.136615 0.205088,0.17656 0.02372,0.01997 0.04132,0.03525 0.05429,0.0454 0.0065,0.0051 0.01136,0.0084 0.01568,0.01135 0.0022,0.0015 0.0044,0.0036 0.0072,0.005 0.0014,7.11e-4 0.0069,0.0012 0.0072,0.0013 1.44e-4,3.2e-5 0.0071,0.0013 0.0072,0.0013 9.7e-5,-1e-5 0.01563,-0.0075 0.01568,-0.0076 1.71e-4,-1.78e-4 0.0029,-0.0039 0.0036,-0.005 6.8e-4,-0.0011 0.0017,-0.0026 0.0024,-0.0038 0.0014,-0.0024 0.0027,-0.005 0.0048,-0.0088 0.0042,-0.0076 0.0095,-0.01884 0.01689,-0.03279 0.0147,-0.0279 0.03688,-0.06863 0.06394,-0.12107 0.05411,-0.104876 0.131859,-0.257066 0.230423,-0.450227 0.197127,-0.386322 0.475751,-0.936096 0.809496,-1.594082 0.667492,-1.315972 1.552982,-3.065561 2.436933,-4.815038 0.883953,-1.749477 1.766941,-3.497981 2.427283,-4.809993 0.330171,-0.656005 0.604461,-1.203162 0.796226,-1.586515 0.09588,-0.191677 0.170987,-0.342035 0.221978,-0.445183 0.0255,-0.05157 0.04488,-0.09156 0.05791,-0.118547 0.0065,-0.01349 0.01115,-0.02431 0.01448,-0.03153 6.18e-4,-0.0014 6.8e-4,-0.0026 0.0012,-0.0038 8.64e-4,-0.0019 0.003,-0.0036 0.0036,-0.005 4.97e-4,-0.0012 6.79e-4,-0.0022 0.0012,-0.0038 5.43e-4,-0.0016 -0.006,-0.02769 -0.0061,-0.02775 -2.9e-5,-3e-5 -0.03129,-0.0026 -0.03137,-0.0025 z m -0.290743,0.581386 c -0.0068,0.01355 -0.0087,0.0188 -0.01568,0.03279 -0.191728,0.383278 -0.467272,0.930531 -0.797433,1.586516 -0.660321,1.311972 -1.542133,3.059273 -2.426075,4.808732 -0.883943,1.749459 -1.769463,3.500367 -2.436934,4.816298 -0.333735,0.657966 -0.613613,1.207834 -0.810703,1.594082 -0.09855,0.193125 -0.176376,0.345492 -0.230423,0.450228 -0.02702,0.05237 -0.04817,0.09217 -0.06273,0.119809 -0.0047,0.0089 -0.0075,0.01401 -0.01086,0.02018 -0.01198,-0.0095 -0.02747,-0.0231 -0.04946,-0.04162 -0.04699,-0.03956 -0.115822,-0.09836 -0.203882,-0.175299 -0.176119,-0.15388 -0.430332,-0.378013 -0.741937,-0.655793 -0.62321,-0.55556 -1.479644,-1.325747 -2.418837,-2.175469 -1.374659,-1.243701 -2.232385,-2.016254 -2.755425,-2.476881 -0.261519,-0.230314 -0.439061,-0.381903 -0.556151,-0.476711 -0.05854,-0.0474 -0.102272,-0.08071 -0.133911,-0.102153 -0.01582,-0.01072 -0.02876,-0.01848 -0.03981,-0.02396 -0.01104,-0.0055 -0.01877,-0.01009 -0.03257,-0.0088 -0.01478,0.0014 -0.02317,0.0077 -0.03619,0.0164 -0.01302,0.0087 -0.02891,0.02029 -0.04826,0.03657 -0.0387,0.03256 -0.09158,0.08225 -0.162865,0.151337 -0.142569,0.138173 -0.357958,0.355818 -0.6683471,0.678494 -0.6207783,0.645354 -1.6243201,1.708724 -3.200586,3.387426 -0.3229117,0.343897 -0.6172347,0.654304 -0.8300051,0.876493 -0.062806,0.06559 -0.1009953,0.104951 -0.1483879,0.153859 0.035949,-0.051 0.062226,-0.0873 0.1121957,-0.157643 0.1820477,-0.256268 0.457689,-0.643039 0.8324177,-1.165294 0.749458,-1.044509 1.8947075,-2.634942 3.4780597,-4.831432 l 0.557357,-0.774341 3.274178,3.234827 c 1.202866,1.188105 2.032679,2.001641 2.569637,2.519761 0.268479,0.25906 0.46348,0.444034 0.595963,0.564991 0.06624,0.06048 0.116793,0.105036 0.153214,0.134942 0.01821,0.01495 0.03283,0.02594 0.04464,0.03405 0.0118,0.0081 0.01792,0.01465 0.03378,0.01639 0.01941,0.0021 0.03989,-0.0085 0.06273,-0.03153 0.02284,-0.023 0.0519,-0.0611 0.09531,-0.124853 0.08682,-0.127495 0.229735,-0.359566 0.478942,-0.779386 0.498414,-0.839639 1.421243,-2.429695 3.158362,-5.430474 1.012992,-1.749884 1.934554,-3.338887 2.604623,-4.489663 0.322558,-0.553959 0.578512,-0.9931 0.766066,-1.312848 z" id="path37"></path></g><path style="fill:#ffffff;fill-opacity:1;fill-rule:evenodd;stroke:#ffffff;stroke-width:0.358852;stroke-linejoin:round;stroke-opacity:0" d="" id="path27" transform="scale(0.26458333)"></path><g id="g1" transform="translate(-194.57531,79.568858)"><path style="fill:#ffffff;fill-opacity:1;fill-rule:evenodd;stroke:#ffffff;stroke-width:0.316954;stroke-linejoin:round;stroke-opacity:0" d="m 53.518587,52.342113 3.85091,-29.937202 -0.48062,32.33417 -38.750498,-1.405834 z" id="path15-9" sodipodi:nodetypes="ccccc"></path><path style="fill:#ffffff;fill-opacity:0;fill-rule:evenodd;stroke:#ffffff;stroke-width:0.329774;stroke-linejoin:round;stroke-opacity:0" d="m 11.548145,57.270468 c 0,0 -0.158817,0.175729 0.561309,-0.411301 1.021026,-0.8323 19.699393,-17.168619 19.699393,-17.168619 l 10.9941,10.994103 20.51718,-41.3440368 -3.01951,4.8002448 -18.58159,29.885394 -9.75533,-9.445642 z" id="path14-9" sodipodi:nodetypes="csccccccc"></path><path style="fill:#ffffff;fill-opacity:1;fill-rule:evenodd;stroke:#ffffff;stroke-width:0.281875;stroke-linejoin:round;stroke-opacity:0" d="M 20.462686,18.321472 17.815565,52.766079 15.394826,14.249682 44.783087,17.1811 Z" id="path23-9" sodipodi:nodetypes="ccccc"></path><path style="fill:#ffffff;fill-opacity:1;fill-rule:evenodd;stroke:#ffffff;stroke-width:0.329774;stroke-linejoin:round;stroke-opacity:0" d="M 14.986131,59.680758 31.410097,27.599293 43.016367,38.329615 69.951667,7.1240862 42.797387,34.606851 31.191107,24.533487 Z" id="path24-1" sodipodi:nodetypes="ccccccc"></path><path style="fill:#ffffff;fill-opacity:0;fill-rule:evenodd;stroke:#ffffff;stroke-width:0.329774;stroke-linejoin:round;stroke-opacity:0" d="M 19.420755,50.446748 C 19.749232,50.008777 29.822597,39.825922 29.822597,39.825922 l 11.27778,9.744884 13.02968,-24.635945" id="path28-7"></path><g id="path30-9" transform="translate(-14.359732,-41.130584)"><path style="color:#000000;fill:#ffffff;fill-rule:evenodd;stroke-linejoin:round;-inkscape-stroke:none" d="m 52.456823,81.668868 c -4.450987,-3.852178 -5.55609,-4.783173 -5.666264,-4.77354 -0.136722,0.01195 -1.53537,1.402861 -6.639155,6.602401 -1.045717,1.06534 -1.901305,1.920022 -1.901305,1.899292 0,-0.03161 2.29014,-3.084816 7.416946,-9.888236 l 0.930103,-1.234273 5.333255,5.039157 c 3.89472,3.679951 5.37163,5.043192 5.47555,5.05412 0.13421,0.01411 0.755295,-0.49957 6.379965,-9.794156 3.28003,-5.420133 6.475747,-9.913521 6.487677,-9.90159 0.0218,0.02182 -12.178652,21.673482 -12.249452,21.744367 -0.0209,0.02088 -2.52615,-2.115514 -5.56732,-4.747542 z" id="path1" sodipodi:nodetypes="ssssscsssscs"></path><path style="color:#000000;fill:url(#radialGradient31-5);fill-opacity:0;fill-rule:evenodd;stroke-linejoin:round;-inkscape-stroke:none" d="m 69.474609,64.662109 c -1.28e-4,8.9e-5 -0.0076,0.0056 -0.0078,0.0059 -4.2e-4,4.47e-4 -0.0027,0.0043 -0.0039,0.0059 -0.0023,0.0031 -0.0048,0.0054 -0.0078,0.0098 -0.0059,0.0088 -0.01471,0.02238 -0.02539,0.03906 -0.02137,0.03337 -0.05115,0.08315 -0.0918,0.148438 -0.08129,0.130584 -0.200775,0.323305 -0.353516,0.572265 -0.305482,0.497921 -0.746626,1.21823 -1.289063,2.109375 -1.084873,1.782292 -2.578721,4.24499 -4.21875,6.955078 -2.812327,4.647281 -4.304974,7.110715 -5.111328,8.410157 -0.403176,0.649721 -0.633444,1.007258 -0.771484,1.201172 -0.06902,0.09696 -0.116824,0.153068 -0.146484,0.18164 -0.02966,0.02857 -0.03498,0.02757 -0.03711,0.02734 0.01268,0.0013 -0.0017,-0.0013 -0.01758,-0.01172 -0.01584,-0.01041 -0.03795,-0.02648 -0.06641,-0.04883 C 57.269284,84.222984 57.186786,84.15383 57.0801,84.060653 56.866706,83.874193 56.551586,83.588465 56.117187,83.1875 55.248391,82.385571 53.9063,81.12509 51.958984,79.285156 L 46.625,74.246094 a 0.04024923,0.04024923 0 0 0 -0.06055,0.0039 l -0.929687,1.234375 c -2.563409,3.401717 -4.417437,5.866646 -5.63086,7.484375 -0.606711,0.808864 -1.052772,1.405644 -1.347656,1.802734 -0.147442,0.198546 -0.257294,0.34726 -0.330078,0.447266 -0.03639,0.05 -0.06373,0.08712 -0.08203,0.113281 -0.0092,0.01308 -0.01652,0.0236 -0.02148,0.03125 -0.0025,0.0038 -0.004,0.0065 -0.0059,0.0098 -9.17e-4,0.0016 -8.36e-4,0.0034 -0.002,0.0059 -5.59e-4,0.0012 -0.0019,0.0056 -0.002,0.0059 -7e-5,2.15e-4 -0.0039,0.01159 -0.0039,0.01172 0,8.1e-5 0.0039,0.01752 0.0039,0.01758 2.6e-5,5.5e-5 0.01753,0.0195 0.01758,0.01953 5.2e-5,2.7e-5 0.01945,0.0039 0.01953,0.0039 7.8e-5,10e-7 0.0097,-0.0019 0.0098,-0.002 2.07e-4,-5.1e-5 0.0095,-0.0018 0.0098,-0.002 3.11e-4,-1.56e-4 0.0027,-0.0032 0.0039,-0.0039 0.0048,-0.003 0.0079,-0.0046 0.01172,-0.0078 0.0077,-0.0064 0.01827,-0.01537 0.03125,-0.02734 0.02596,-0.02395 0.06293,-0.06037 0.111328,-0.107422 0.0968,-0.0941 0.23778,-0.232102 0.410157,-0.404297 0.344754,-0.344389 0.818864,-0.824676 1.341796,-1.357421 2.55186,-2.599736 4.177212,-4.247225 5.181641,-5.246094 0.502215,-0.499435 0.850701,-0.836174 1.080078,-1.048828 0.114689,-0.106327 0.199831,-0.182234 0.259766,-0.230469 0.02997,-0.02412 0.05339,-0.03999 0.07031,-0.05078 0.01692,-0.01079 0.03028,-0.01427 0.02344,-0.01367 -0.0086,7.5e-4 -8.64e-4,-1.13e-4 0.01172,0.0059 0.01258,0.006 0.03084,0.01579 0.05469,0.03125 0.04769,0.03091 0.117077,0.0816 0.210938,0.154297 0.187721,0.145402 0.475409,0.381901 0.898437,0.738281 0.846057,0.712761 2.233526,1.907926 4.458984,3.833985 1.520645,1.316065 2.908786,2.508553 3.917969,3.36914 0.504592,0.430294 0.913702,0.776988 1.199219,1.015625 0.142758,0.119319 0.255213,0.211576 0.332031,0.273438 0.03841,0.03093 0.06689,0.0546 0.08789,0.07031 0.0105,0.0079 0.01839,0.01307 0.02539,0.01758 0.0035,0.0023 0.0071,0.0056 0.01172,0.0078 0.0023,0.0011 0.01125,0.0019 0.01172,0.002 2.33e-4,5e-5 0.01156,0.002 0.01172,0.002 1.57e-4,-1.6e-5 0.02531,-0.01164 0.02539,-0.01172 2.77e-4,-2.76e-4 0.0047,-0.0061 0.0059,-0.0078 0.0011,-0.0017 0.0028,-0.004 0.0039,-0.0059 0.0023,-0.0037 0.0044,-0.0078 0.0078,-0.01367 0.0068,-0.01183 0.01544,-0.02918 0.02734,-0.05078 0.0238,-0.0432 0.05971,-0.106289 0.103516,-0.1875 0.08761,-0.162421 0.213475,-0.398117 0.373047,-0.697265 0.319142,-0.598296 0.770224,-1.449729 1.310547,-2.46875 1.080646,-2.038041 2.514224,-4.747622 3.945312,-7.457031 1.431089,-2.70941 2.860616,-5.417311 3.929688,-7.449219 0.534535,-1.015954 0.978601,-1.863334 1.289062,-2.457031 0.155231,-0.296849 0.276823,-0.529709 0.359375,-0.689454 0.04128,-0.07987 0.07266,-0.141799 0.09375,-0.183593 0.01055,-0.0209 0.01806,-0.03765 0.02344,-0.04883 10e-4,-0.0022 0.0011,-0.004 0.002,-0.0059 0.0014,-0.0029 0.0049,-0.0055 0.0059,-0.0078 8.04e-4,-0.0018 0.0011,-0.0034 0.002,-0.0059 8.79e-4,-0.0025 -0.0097,-0.04288 -0.0098,-0.04297 -4.7e-5,-4.7e-5 -0.05065,-0.004 -0.05078,-0.0039 z M 69.003906,65.5625 c -0.01097,0.02099 -0.01406,0.02911 -0.02539,0.05078 -0.310401,0.593581 -0.756497,1.441109 -1.291016,2.457031 -1.069038,2.031846 -2.496661,4.737885 -3.927734,7.447266 -1.431074,2.709381 -2.8647,5.421006 -3.945313,7.458984 -0.540306,1.01899 -0.993418,1.870568 -1.3125,2.46875 -0.159541,0.299092 -0.285548,0.535061 -0.373047,0.697266 -0.04375,0.0811 -0.07798,0.142746 -0.101562,0.185547 -0.0076,0.01371 -0.01222,0.0217 -0.01758,0.03125 -0.0194,-0.01465 -0.04447,-0.03578 -0.08008,-0.06445 -0.07607,-0.06126 -0.187512,-0.152327 -0.330078,-0.271485 -0.285131,-0.238314 -0.696693,-0.585427 -1.201172,-1.015625 -1.008956,-0.860394 -2.395492,-2.05318 -3.916015,-3.36914 -2.225525,-1.926116 -3.614154,-3.122566 -4.460938,-3.835938 -0.423391,-0.356686 -0.710825,-0.591451 -0.90039,-0.738281 -0.09478,-0.07341 -0.165575,-0.124999 -0.216797,-0.158203 -0.02561,-0.0166 -0.04657,-0.02862 -0.06445,-0.03711 -0.01788,-0.0085 -0.03039,-0.01563 -0.05273,-0.01367 -0.02393,0.0021 -0.03751,0.01195 -0.05859,0.02539 -0.02108,0.01344 -0.0468,0.03143 -0.07813,0.05664 -0.06266,0.05043 -0.148265,0.127381 -0.263672,0.234375 -0.230815,0.213988 -0.579522,0.551053 -1.082032,1.050781 -1.005019,0.999457 -2.629719,2.646295 -5.18164,5.246094 -0.522783,0.532593 -0.999282,1.013318 -1.34375,1.357422 -0.101681,0.101573 -0.163508,0.162538 -0.240235,0.238281 0.0582,-0.07898 0.100742,-0.135202 0.181641,-0.244141 0.294729,-0.396882 0.740983,-0.995873 1.347656,-1.804687 1.213347,-1.617628 3.067467,-4.080726 5.63086,-7.482422 l 0.902343,-1.199219 5.300782,5.009766 c 1.9474,1.840014 3.290839,3.099934 4.160156,3.902344 0.434658,0.401205 0.750358,0.687674 0.964844,0.875 0.107242,0.09366 0.189083,0.162668 0.248047,0.208984 0.02948,0.02316 0.05315,0.04018 0.07227,0.05273 0.01911,0.01256 0.02902,0.02269 0.05469,0.02539 0.03142,0.0033 0.06458,-0.0132 0.101562,-0.04883 0.03698,-0.03562 0.08402,-0.09463 0.154297,-0.193359 0.140558,-0.197451 0.371933,-0.556858 0.775391,-1.207032 0.806915,-1.300346 2.300944,-3.76286 5.113281,-8.410156 1.639999,-2.710039 3.131978,-5.170923 4.216797,-6.953125 0.52221,-0.857915 0.93659,-1.538011 1.240234,-2.033203 z" id="path2"></path></g></g><g id="g24" transform="translate(44.707126,12.186047)" style="opacity: 0.0058;"><path style="fill:url(#radialGradient6-4);fill-opacity:1;fill-rule:evenodd;stroke:#ffffff;stroke-width:0.0193791;stroke-linejoin:round;stroke-opacity:0" d="m -20.887822,17.036703 2.378624,-19.3305807 -0.296869,20.8783137 -23.935337,-0.907754 z" id="path31-2" sodipodi:nodetypes="ccccc"></path><path style="fill:#ffffff;fill-opacity:0;fill-rule:evenodd;stroke:#ffffff;stroke-width:0.0201627;stroke-linejoin:round;stroke-opacity:0" d="m -46.812048,20.218963 c 0,0 -0.0981,0.113469 0.346708,-0.265579 0.630666,-0.537419 12.167886,-11.085851 12.167886,-11.085851 l 6.790815,7.09894 12.673015,-26.696024 -1.865086,3.0995392 -11.477442,19.2971278 -6.025655,-6.099092 z" id="path32-9" sodipodi:nodetypes="csccccccc"></path><path style="fill:url(#radialGradient8-1);fill-opacity:1;fill-rule:evenodd;stroke:#ffffff;stroke-width:0.0172341;stroke-linejoin:round;stroke-opacity:0" d="M -41.305731,-4.9305719 -42.9408,17.31046 -44.436037,-7.5597443 -26.283549,-5.666915 Z" id="path33-8" sodipodi:nodetypes="ccccc"></path><path style="fill:url(#radialGradient2-2);fill-opacity:1;fill-rule:evenodd;stroke:#ffffff;stroke-width:0.0201627;stroke-linejoin:round;stroke-opacity:0" d="m -44.688479,21.775298 10.144725,-20.715141 7.16894,6.928615 16.637348,-20.149544 -16.772607,17.74574 -7.168946,-6.504415 z" id="path34-0" sodipodi:nodetypes="ccccccc"></path><path style="fill:#ffffff;fill-opacity:0;fill-rule:evenodd;stroke:#ffffff;stroke-width:0.0201627;stroke-linejoin:round;stroke-opacity:0" d="m -41.949309,15.812858 c 0.202893,-0.2828 6.424991,-6.857914 6.424991,-6.857914 l 6.966039,6.292314 8.048149,-15.907536" id="path35-5"></path><path style="color:#000000;fill:url(#radialGradient4-5);fill-rule:evenodd;stroke-width:0.0611409;stroke-linejoin:round;-inkscape-stroke:none" d="m -30.413344,9.41492 c -2.749277,-2.487368 -3.431875,-3.088516 -3.499927,-3.082296 -0.08445,0.0077 -0.948365,0.905834 -4.100862,4.263199 -0.645916,0.687895 -1.174394,1.239767 -1.174394,1.226381 0,-0.02041 1.414569,-1.991879 4.581286,-6.384876 l 0.574504,-0.796976 3.294235,3.253806 c 2.405684,2.37616 3.317939,3.256411 3.382128,3.263467 0.0829,0.0091 0.466529,-0.322575 3.940765,-6.324129 2.026003,-3.499803 3.999928,-6.401203 4.007297,-6.393499 0.01347,0.01409 -7.522488,13.994661 -7.566219,14.040431 -0.01291,0.01348 -1.560348,-1.365996 -3.438813,-3.065508 z" id="path36-7" sodipodi:nodetypes="ssssscsssscs"></path><path style="color:#000000;fill:url(#radialGradient38-4);fill-opacity:0;fill-rule:evenodd;stroke-width:0.0611409;stroke-linejoin:round;-inkscape-stroke:none" d="m -19.901828,-1.566418 c -7.9e-5,5.8e-5 -0.0047,0.0036 -0.0048,0.0038 -2.6e-4,2.88e-4 -0.0017,0.0028 -0.0024,0.0038 -0.0014,0.002 -0.003,0.0035 -0.0048,0.0063 -0.0036,0.0057 -0.0091,0.01445 -0.01568,0.02522 -0.0132,0.02155 -0.03159,0.05369 -0.0567,0.09585 -0.05021,0.08432 -0.124014,0.208759 -0.218359,0.369514 -0.188689,0.321509 -0.461174,0.786616 -0.796226,1.362032 -0.670102,1.150834 -1.59282,2.741009 -2.60583,4.490924 -1.737113,3.000769 -2.659088,4.591419 -3.157156,5.430475 -0.249033,0.419527 -0.391264,0.650391 -0.476528,0.775602 -0.04263,0.06261 -0.07216,0.09884 -0.09048,0.117285 -0.01832,0.01845 -0.02161,0.0178 -0.02292,0.01765 0.0078,8.39e-4 -0.0011,-8.39e-4 -0.01086,-0.0076 -0.0098,-0.0067 -0.02344,-0.0171 -0.04102,-0.03153 -0.03515,-0.02886 -0.08611,-0.07352 -0.152007,-0.133681 -0.131809,-0.120398 -0.326452,-0.304894 -0.594771,-0.563799 -0.536636,-0.517809 -1.365616,-1.331707 -2.568431,-2.51976 L -34.015481,4.62192 a 0.02486107,0.0259891 0 0 0 -0.0374,0.0025 l -0.574247,0.797041 c -1.583362,2.196504 -2.728555,3.788119 -3.47806,4.832693 -0.374752,0.522287 -0.650274,0.907631 -0.832417,1.164034 -0.09107,0.128202 -0.158925,0.224227 -0.203882,0.288801 -0.02248,0.03228 -0.03937,0.05625 -0.05067,0.07315 -0.0057,0.0084 -0.0102,0.01524 -0.01327,0.02018 -0.0015,0.0025 -0.0025,0.0042 -0.0036,0.0063 -5.67e-4,0.001 -5.17e-4,0.0022 -0.0012,0.0038 -3.46e-4,7.75e-4 -0.0012,0.0036 -0.0012,0.0038 -4.4e-5,1.38e-4 -0.0024,0.0075 -0.0024,0.0076 0,5.3e-5 0.0024,0.01131 0.0024,0.01135 1.6e-5,3.5e-5 0.01083,0.01259 0.01086,0.01261 3.2e-5,1.8e-5 0.01201,0.0025 0.01206,0.0025 4.8e-5,0 0.006,-0.0012 0.006,-0.0013 1.28e-4,-3.3e-5 0.0059,-0.0012 0.0061,-0.0013 1.92e-4,-1.01e-4 0.0017,-0.0021 0.0024,-0.0025 0.003,-0.0019 0.0049,-0.003 0.0072,-0.005 0.0048,-0.0041 0.01129,-0.0099 0.0193,-0.01765 0.01603,-0.01547 0.03887,-0.03898 0.06876,-0.06936 0.05979,-0.06076 0.146871,-0.14987 0.253345,-0.261057 0.212947,-0.222373 0.505794,-0.532496 0.828798,-0.876492 1.576228,-1.678661 2.580173,-2.742452 3.200586,-3.387426 0.310208,-0.322487 0.52546,-0.539921 0.667141,-0.677233 0.07084,-0.06865 0.123431,-0.117669 0.160452,-0.148814 0.01851,-0.01557 0.03298,-0.02582 0.04343,-0.03279 0.01045,-0.007 0.0187,-0.0092 0.01448,-0.0088 -0.0053,4.84e-4 -5.33e-4,-7.3e-5 0.0072,0.0038 0.0078,0.0039 0.01905,0.0102 0.03378,0.02018 0.02946,0.01996 0.07232,0.05269 0.130292,0.09963 0.115951,0.09389 0.29365,0.246595 0.554945,0.476711 0.522591,0.460233 1.3796,1.231956 2.754217,2.475621 0.93927,0.849789 1.796694,1.619784 2.420044,2.175468 0.311676,0.277843 0.564374,0.501705 0.740732,0.655794 0.08818,0.07705 0.157639,0.136615 0.205088,0.17656 0.02372,0.01997 0.04132,0.03525 0.05429,0.0454 0.0065,0.0051 0.01136,0.0084 0.01568,0.01135 0.0022,0.0015 0.0044,0.0036 0.0072,0.005 0.0014,7.11e-4 0.0069,0.0012 0.0072,0.0013 1.44e-4,3.2e-5 0.0071,0.0013 0.0072,0.0013 9.7e-5,-1e-5 0.01563,-0.0075 0.01568,-0.0076 1.71e-4,-1.78e-4 0.0029,-0.0039 0.0036,-0.005 6.8e-4,-0.0011 0.0017,-0.0026 0.0024,-0.0038 0.0014,-0.0024 0.0027,-0.005 0.0048,-0.0088 0.0042,-0.0076 0.0095,-0.01884 0.01689,-0.03279 0.0147,-0.0279 0.03688,-0.06863 0.06394,-0.12107 0.05411,-0.104876 0.131859,-0.257066 0.230423,-0.450227 0.197127,-0.386322 0.475751,-0.936096 0.809496,-1.594082 0.667492,-1.315972 1.552982,-3.065561 2.436933,-4.815038 0.883953,-1.749477 1.766941,-3.497981 2.427283,-4.809993 0.330171,-0.656005 0.604461,-1.203162 0.796226,-1.586515 0.09588,-0.191677 0.170987,-0.342035 0.221978,-0.445183 0.0255,-0.05157 0.04488,-0.09156 0.05791,-0.118547 0.0065,-0.01349 0.01115,-0.02431 0.01448,-0.03153 6.18e-4,-0.0014 6.8e-4,-0.0026 0.0012,-0.0038 8.64e-4,-0.0019 0.003,-0.0036 0.0036,-0.005 4.97e-4,-0.0012 6.79e-4,-0.0022 0.0012,-0.0038 5.43e-4,-0.0016 -0.006,-0.02769 -0.0061,-0.02775 -2.9e-5,-3e-5 -0.03129,-0.0026 -0.03137,-0.0025 z m -0.290743,0.581386 c -0.0068,0.01355 -0.0087,0.0188 -0.01568,0.03279 -0.191728,0.383278 -0.467272,0.930531 -0.797433,1.586516 -0.660321,1.311972 -1.542133,3.059273 -2.426075,4.808732 -0.883943,1.749459 -1.769463,3.500367 -2.436934,4.816298 -0.333735,0.657966 -0.613613,1.207834 -0.810703,1.594082 -0.09855,0.193125 -0.176376,0.345492 -0.230423,0.450228 -0.02702,0.05237 -0.04817,0.09217 -0.06273,0.119809 -0.0047,0.0089 -0.0075,0.01401 -0.01086,0.02018 -0.01198,-0.0095 -0.02747,-0.0231 -0.04946,-0.04162 -0.04699,-0.03956 -0.115822,-0.09836 -0.203882,-0.175299 -0.176119,-0.15388 -0.430332,-0.378013 -0.741937,-0.655793 -0.62321,-0.55556 -1.479644,-1.325747 -2.418837,-2.175469 -1.374659,-1.243701 -2.232385,-2.016254 -2.755425,-2.476881 -0.261519,-0.230314 -0.439061,-0.381903 -0.556151,-0.476711 -0.05854,-0.0474 -0.102272,-0.08071 -0.133911,-0.102153 -0.01582,-0.01072 -0.02876,-0.01848 -0.03981,-0.02396 -0.01104,-0.0055 -0.01877,-0.01009 -0.03257,-0.0088 -0.01478,0.0014 -0.02317,0.0077 -0.03619,0.0164 -0.01302,0.0087 -0.02891,0.02029 -0.04826,0.03657 -0.0387,0.03256 -0.09158,0.08225 -0.162865,0.151337 -0.142569,0.138173 -0.357958,0.355818 -0.668347,0.678494 -0.620778,0.645354 -1.62432,1.708724 -3.200586,3.387426 -0.322912,0.343897 -0.617235,0.654304 -0.830005,0.876493 -0.06281,0.06559 -0.100995,0.104951 -0.148388,0.153859 0.03595,-0.051 0.06223,-0.0873 0.112196,-0.157643 0.182047,-0.256268 0.457689,-0.643039 0.832417,-1.165294 0.749458,-1.044509 1.894708,-2.634942 3.47806,-4.831432 l 0.557357,-0.774341 3.274178,3.234827 c 1.202866,1.188105 2.032679,2.001641 2.569637,2.519761 0.268479,0.25906 0.46348,0.444034 0.595963,0.564991 0.06624,0.06048 0.116793,0.105036 0.153214,0.134942 0.01821,0.01495 0.03283,0.02594 0.04464,0.03405 0.0118,0.0081 0.01792,0.01465 0.03378,0.01639 0.01941,0.0021 0.03989,-0.0085 0.06273,-0.03153 0.02284,-0.023 0.0519,-0.0611 0.09531,-0.124853 0.08682,-0.127495 0.229735,-0.359566 0.478942,-0.779386 0.498414,-0.839639 1.421243,-2.429695 3.158362,-5.430474 1.012992,-1.749884 1.934554,-3.338887 2.604623,-4.489663 0.322558,-0.553959 0.578512,-0.9931 0.766066,-1.312848 z" id="path37-1"></path></g><g id="g25" transform="translate(98.957685,36.555088)" style="opacity: 0.2368;"><path style="fill:url(#radialGradient6-4-7);fill-opacity:1;fill-rule:evenodd;stroke:#ffffff;stroke-width:0.0193791;stroke-linejoin:round;stroke-opacity:0" d="m -75.127405,-7.304964 2.378624,-19.330581 -0.296869,20.878314 -23.935337,-0.907754 z" id="path31-2-1" sodipodi:nodetypes="ccccc"></path><path style="fill:#ffffff;fill-opacity:0;fill-rule:evenodd;stroke:#ffffff;stroke-width:0.0201627;stroke-linejoin:round;stroke-opacity:0" d="m -101.05163,-4.122704 c 0,0 -0.0981,0.113469 0.34671,-0.265579 0.63066,-0.537419 12.167883,-11.085851 12.167883,-11.085851 l 6.790815,7.09894 12.673015,-26.696024 -1.865086,3.099539 -11.477442,19.297128 -6.025655,-6.099092 z" id="path32-9-1" sodipodi:nodetypes="csccccccc"></path><path style="fill:url(#radialGradient8-1-1);fill-opacity:1;fill-rule:evenodd;stroke:#ffffff;stroke-width:0.0172341;stroke-linejoin:round;stroke-opacity:0" d="m -95.545314,-29.272239 -1.635069,22.241032 -1.495237,-24.870204 18.152488,1.892829 z" id="path33-8-3" sodipodi:nodetypes="ccccc"></path><path style="fill:url(#radialGradient2-2-8);fill-opacity:1;fill-rule:evenodd;stroke:#ffffff;stroke-width:0.0201627;stroke-linejoin:round;stroke-opacity:0" d="m -98.928062,-2.566369 10.144725,-20.715141 7.16894,6.928615 16.637348,-20.149544 -16.772607,17.74574 -7.168946,-6.504415 z" id="path34-0-3" sodipodi:nodetypes="ccccccc"></path><path style="fill:#ffffff;fill-opacity:0;fill-rule:evenodd;stroke:#ffffff;stroke-width:0.0201627;stroke-linejoin:round;stroke-opacity:0" d="m -96.188892,-8.528809 c 0.202893,-0.2828 6.424991,-6.857914 6.424991,-6.857914 l 6.966039,6.292314 8.048149,-15.907536" id="path35-5-6"></path><path style="color:#000000;fill:url(#radialGradient4-5-7);fill-rule:evenodd;stroke-width:0.0611409;stroke-linejoin:round;-inkscape-stroke:none" d="m -84.652927,-14.926747 c -2.749277,-2.487368 -3.431875,-3.088516 -3.499927,-3.082296 -0.08445,0.0077 -0.948365,0.905834 -4.100862,4.263199 -0.645916,0.687895 -1.174394,1.239767 -1.174394,1.226381 0,-0.02041 1.414569,-1.991879 4.581286,-6.384876 l 0.574504,-0.796976 3.294235,3.253806 c 2.405684,2.37616 3.317939,3.256411 3.382128,3.263467 0.0829,0.0091 0.466529,-0.322575 3.940765,-6.324129 2.026003,-3.499803 3.999928,-6.401203 4.007297,-6.393499 0.01347,0.01409 -7.522488,13.994661 -7.566219,14.040431 -0.01291,0.01348 -1.560348,-1.365996 -3.438813,-3.065508 z" id="path36-7-7" sodipodi:nodetypes="ssssscsssscs"></path><path style="color:#000000;fill:url(#radialGradient38-4-0);fill-opacity:0;fill-rule:evenodd;stroke-width:0.0611409;stroke-linejoin:round;-inkscape-stroke:none" d="m -74.141411,-25.908085 c -7.9e-5,5.8e-5 -0.0047,0.0036 -0.0048,0.0038 -2.6e-4,2.88e-4 -0.0017,0.0028 -0.0024,0.0038 -0.0014,0.002 -0.003,0.0035 -0.0048,0.0063 -0.0036,0.0057 -0.0091,0.01445 -0.01568,0.02522 -0.0132,0.02155 -0.03159,0.05369 -0.0567,0.09585 -0.05021,0.08432 -0.124014,0.208759 -0.218359,0.369514 -0.188689,0.321509 -0.461174,0.786616 -0.796226,1.362032 -0.670102,1.150834 -1.59282,2.741009 -2.60583,4.490924 -1.737113,3.000769 -2.659088,4.591419 -3.157156,5.430475 -0.249033,0.419527 -0.391264,0.650391 -0.476528,0.775602 -0.04263,0.06261 -0.07216,0.09884 -0.09048,0.117285 -0.01832,0.01845 -0.02161,0.0178 -0.02292,0.01765 0.0078,8.39e-4 -0.0011,-8.39e-4 -0.01086,-0.0076 -0.0098,-0.0067 -0.02344,-0.0171 -0.04102,-0.03153 -0.03515,-0.02886 -0.08611,-0.07352 -0.152007,-0.133681 -0.131809,-0.120398 -0.326452,-0.304894 -0.594771,-0.563799 -0.536636,-0.517809 -1.365616,-1.331707 -2.568431,-2.51976 l -3.294685,-3.253744 a 0.02486107,0.0259891 0 0 0 -0.0374,0.0025 l -0.574247,0.797041 c -1.583362,2.196504 -2.728555,3.788119 -3.47806,4.832693 -0.374752,0.522287 -0.650274,0.907631 -0.832417,1.164034 -0.09107,0.128202 -0.158925,0.224227 -0.203882,0.288801 -0.02248,0.03228 -0.03937,0.05625 -0.05067,0.07315 -0.0057,0.0084 -0.0102,0.01524 -0.01327,0.02018 -0.0015,0.0025 -0.0025,0.0042 -0.0036,0.0063 -5.67e-4,10e-4 -5.17e-4,0.0022 -0.0012,0.0038 -3.46e-4,7.75e-4 -0.0012,0.0036 -0.0012,0.0038 -4.4e-5,1.38e-4 -0.0024,0.0075 -0.0024,0.0076 0,5.3e-5 0.0024,0.01131 0.0024,0.01135 1.6e-5,3.5e-5 0.01083,0.01259 0.01086,0.01261 3.2e-5,1.8e-5 0.01201,0.0025 0.01206,0.0025 4.8e-5,0 0.006,-0.0012 0.006,-0.0013 1.28e-4,-3.3e-5 0.0059,-0.0012 0.0061,-0.0013 1.92e-4,-1.01e-4 0.0017,-0.0021 0.0024,-0.0025 0.003,-0.0019 0.0049,-0.003 0.0072,-0.005 0.0048,-0.0041 0.01129,-0.0099 0.0193,-0.01765 0.01603,-0.01547 0.03887,-0.03898 0.06876,-0.06936 0.05979,-0.06076 0.146871,-0.14987 0.253345,-0.261057 0.212947,-0.222373 0.505794,-0.532496 0.828798,-0.876492 1.576228,-1.678661 2.580173,-2.742452 3.200586,-3.387426 0.310208,-0.322487 0.52546,-0.539921 0.667141,-0.677233 0.07084,-0.06865 0.123431,-0.117669 0.160452,-0.148814 0.01851,-0.01557 0.03298,-0.02582 0.04343,-0.03279 0.01045,-0.007 0.0187,-0.0092 0.01448,-0.0088 -0.0053,4.84e-4 -5.33e-4,-7.3e-5 0.0072,0.0038 0.0078,0.0039 0.01905,0.0102 0.03378,0.02018 0.02946,0.01996 0.07232,0.05269 0.130292,0.09963 0.115951,0.09389 0.29365,0.246595 0.554945,0.476711 0.522591,0.460233 1.3796,1.231956 2.754217,2.475621 0.93927,0.849789 1.796694,1.619784 2.420044,2.175468 0.311676,0.277843 0.564374,0.501705 0.740732,0.655794 0.08818,0.07705 0.157639,0.136615 0.205088,0.17656 0.02372,0.01997 0.04132,0.03525 0.05429,0.0454 0.0065,0.0051 0.01136,0.0084 0.01568,0.01135 0.0022,0.0015 0.0044,0.0036 0.0072,0.005 0.0014,7.11e-4 0.0069,0.0012 0.0072,0.0013 1.44e-4,3.2e-5 0.0071,0.0013 0.0072,0.0013 9.7e-5,-10e-6 0.01563,-0.0075 0.01568,-0.0076 1.71e-4,-1.78e-4 0.0029,-0.0039 0.0036,-0.005 6.8e-4,-0.0011 0.0017,-0.0026 0.0024,-0.0038 0.0014,-0.0024 0.0027,-0.005 0.0048,-0.0088 0.0042,-0.0076 0.0095,-0.01884 0.01689,-0.03279 0.0147,-0.0279 0.03688,-0.06863 0.06394,-0.12107 0.05411,-0.104876 0.131859,-0.257066 0.230423,-0.450227 0.197127,-0.386322 0.475751,-0.936096 0.809496,-1.594082 0.667492,-1.315972 1.552982,-3.065561 2.436933,-4.815038 0.883953,-1.749477 1.766941,-3.497981 2.427283,-4.809993 0.330171,-0.656005 0.604461,-1.203162 0.796226,-1.586515 0.09588,-0.191677 0.170987,-0.342035 0.221978,-0.445183 0.0255,-0.05157 0.04488,-0.09156 0.05791,-0.118547 0.0065,-0.01349 0.01115,-0.02431 0.01448,-0.03153 6.18e-4,-0.0014 6.8e-4,-0.0026 0.0012,-0.0038 8.64e-4,-0.0019 0.003,-0.0036 0.0036,-0.005 4.97e-4,-0.0012 6.79e-4,-0.0022 0.0012,-0.0038 5.43e-4,-0.0016 -0.006,-0.02769 -0.0061,-0.02775 -2.9e-5,-3e-5 -0.03129,-0.0026 -0.03137,-0.0025 z m -0.290743,0.581386 c -0.0068,0.01355 -0.0087,0.0188 -0.01568,0.03279 -0.191728,0.383278 -0.467272,0.930531 -0.797433,1.586516 -0.660321,1.311972 -1.542133,3.059273 -2.426075,4.808732 -0.883943,1.749459 -1.769463,3.500367 -2.436934,4.816298 -0.333735,0.657966 -0.613613,1.207834 -0.810703,1.594082 -0.09855,0.193125 -0.176376,0.345492 -0.230423,0.450228 -0.02702,0.05237 -0.04817,0.09217 -0.06273,0.119809 -0.0047,0.0089 -0.0075,0.01401 -0.01086,0.02018 -0.01198,-0.0095 -0.02747,-0.0231 -0.04946,-0.04162 -0.04699,-0.03956 -0.115822,-0.09836 -0.203882,-0.175299 -0.176119,-0.15388 -0.430332,-0.378013 -0.741937,-0.655793 -0.62321,-0.55556 -1.479644,-1.325747 -2.418837,-2.175469 -1.374659,-1.243701 -2.232385,-2.016254 -2.755425,-2.476881 -0.261519,-0.230314 -0.439061,-0.381903 -0.556151,-0.476711 -0.05854,-0.0474 -0.102272,-0.08071 -0.133911,-0.102153 -0.01582,-0.01072 -0.02876,-0.01848 -0.03981,-0.02396 -0.01104,-0.0055 -0.01877,-0.01009 -0.03257,-0.0088 -0.01478,0.0014 -0.02317,0.0077 -0.03619,0.0164 -0.01302,0.0087 -0.02891,0.02029 -0.04826,0.03657 -0.0387,0.03256 -0.09158,0.08225 -0.162865,0.151337 -0.142569,0.138173 -0.357958,0.355818 -0.668347,0.678494 -0.620778,0.645354 -1.62432,1.708724 -3.200586,3.387426 -0.322912,0.343897 -0.617235,0.654304 -0.830005,0.876493 -0.06281,0.06559 -0.100995,0.104951 -0.148388,0.153859 0.03595,-0.051 0.06223,-0.0873 0.112196,-0.157643 0.182047,-0.256268 0.457689,-0.643039 0.832417,-1.165294 0.749458,-1.044509 1.894708,-2.634942 3.47806,-4.831432 l 0.557357,-0.774341 3.274178,3.234827 c 1.202866,1.188105 2.032679,2.001641 2.569637,2.519761 0.268479,0.25906 0.46348,0.444034 0.595963,0.564991 0.06624,0.06048 0.116793,0.105036 0.153214,0.134942 0.01821,0.01495 0.03283,0.02594 0.04464,0.03405 0.0118,0.0081 0.01792,0.01465 0.03378,0.01639 0.01941,0.0021 0.03989,-0.0085 0.06273,-0.03153 0.02284,-0.023 0.0519,-0.0611 0.09531,-0.124853 0.08682,-0.127495 0.229735,-0.359566 0.478942,-0.779386 0.498414,-0.839639 1.421243,-2.429695 3.158362,-5.430474 1.012992,-1.749884 1.934554,-3.338887 2.604623,-4.489663 0.322558,-0.553959 0.578512,-0.9931 0.766066,-1.312848 z" id="path37-1-7"></path></g></g></svg>