<?xml version="1.0" encoding="utf-8"?>
<svg xmlns="http://www.w3.org/2000/svg" viewBox="0 0 500 500" xmlns:bx="https://boxy-svg.com" width="500px" height="500px"><defs><filter id="duotone-filter-0" bx:preset="duotone 1 #bd0b91 #fcbb0d 1" color-interpolation-filters="sRGB" x="-50%" y="-50%" width="200%" height="200%"><feColorMatrix type="matrix" result="grayscale" values="1 0 0 0 0 1 0 0 0 0 1 0 0 0 0 0 0 0 1 0"/><feComponentTransfer color-interpolation-filters="sRGB"><feFuncR type="gamma" exponent="1.5" amplitude="1" offset="0"/><feFuncG type="gamma" exponent="1.5" amplitude="1" offset="0"/><feFuncB type="gamma" exponent="1.5" amplitude="1" offset="0"/></feComponentTransfer><feComponentTransfer color-interpolation-filters="sRGB" result="duotone"><feFuncR type="table" tableValues="0.741 0.988"/><feFuncG type="table" tableValues="0.043 0.733"/><feFuncB type="table" tableValues="0.569 0.051"/><feFuncA type="table" tableValues="0 1"/></feComponentTransfer></filter><bx:export><bx:file format="svg" href="#layer1" excluded="true"/><bx:file format="png" href="#layer1" excluded="true"/><bx:file format="svg" href="#path33-8-3" path="Untitled 2.svg"/><bx:file format="png" path="Untitled 2.png"/><bx:file format="svg" path="Untitled 3.svg"/></bx:export><filter id="outline-filter-0" bx:preset="outline 1 4 #bada55" color-interpolation-filters="sRGB" x="-50%" y="-50%" width="200%" height="200%"><feMorphology in="SourceAlpha" result="dilated" operator="dilate" radius="4"/><feFlood flood-color="#bada55" result="flood"/><feComposite in="flood" in2="dilated" operator="in" result="outline"/><feMerge><feMergeNode in="outline"/><feMergeNode in="SourceGraphic"/></feMerge></filter><radialGradient gradientUnits="userSpaceOnUse" cx="0" cy="0" r="0" id="gradient-7"><stop offset="0" style="stop-color: #bada55"/><stop offset="1" style="stop-color: #758d29"/></radialGradient><radialGradient gradientUnits="userSpaceOnUse" cx="37.754" cy="38.572" r="19.616" id="gradient-8" gradientTransform="matrix(1, 0, 0, 1, 89.024742, -8.781352)"><stop offset="0" style="stop-color: #bada55"/><stop offset="1" style="stop-color: #758d29"/></radialGradient><radialGradient gradientUnits="userSpaceOnUse" cx="37.427" cy="33.318" r="25.893" id="gradient-9" gradientTransform="matrix(1, 0, 0, 1, 89.024742, -8.781352)"><stop offset="0" style="stop-color: #bada55"/><stop offset="1" style="stop-color: #758d29"/></radialGradient><radialGradient gradientUnits="userSpaceOnUse" cx="30.089" cy="33.508" r="14.694" id="gradient-10" gradientTransform="matrix(1, 0, 0, 1, 89.024742, -8.781352)"><stop offset="0" style="stop-color: #bada55"/><stop offset="1" style="stop-color: #758d29"/></radialGradient><radialGradient gradientUnits="userSpaceOnUse" cx="42.469" cy="33.402" r="27.483" id="gradient-11" gradientTransform="matrix(1, 0, 0, 1, 89.024742, -8.781352)"><stop offset="0" style="stop-color: #bada55"/><stop offset="1" style="stop-color: #758d29"/></radialGradient><radialGradient gradientUnits="userSpaceOnUse" cx="36.775" cy="37.691" r="17.355" id="gradient-12" gradientTransform="matrix(1, 0, 0, 1, 89.024742, -8.781352)"><stop offset="0" style="stop-color: #bada55"/><stop offset="1" style="stop-color: #758d29"/></radialGradient><radialGradient gradientUnits="userSpaceOnUse" cx="54.262" cy="75.544" r="16.012" id="gradient-13"><stop offset="0" style="stop-color: #bada55"/><stop offset="1" style="stop-color: #758d29"/></radialGradient><radialGradient gradientUnits="userSpaceOnUse" cx="53.872" cy="75.56" r="15.663" id="gradient-14"><stop offset="0" style="stop-color: #bada55"/><stop offset="1" style="stop-color: #758d29"/></radialGradient><radialGradient gradientUnits="userSpaceOnUse" cx="-84.865" cy="-16.196" r="12.116" id="gradient-22"><stop offset="0" style="stop-color: #bada55"/><stop offset="1" style="stop-color: #758d29"/></radialGradient><radialGradient gradientUnits="userSpaceOnUse" cx="-85.067" cy="-19.589" r="15.994" id="gradient-23"><stop offset="0" style="stop-color: #bada55"/><stop offset="1" style="stop-color: #758d29"/></radialGradient><radialGradient gradientUnits="userSpaceOnUse" cx="-89.599" cy="-19.466" r="9.076" id="gradient-24"><stop offset="0" style="stop-color: #bada55"/><stop offset="1" style="stop-color: #758d29"/></radialGradient><radialGradient gradientUnits="userSpaceOnUse" cx="-81.953" cy="-19.534" r="16.976" id="gradient-25"><stop offset="0" style="stop-color: #bada55"/><stop offset="1" style="stop-color: #758d29"/></radialGradient><radialGradient gradientUnits="userSpaceOnUse" cx="-85.469" cy="-16.765" r="10.72" id="gradient-26"><stop offset="0" style="stop-color: #bada55"/><stop offset="1" style="stop-color: #758d29"/></radialGradient><radialGradient gradientUnits="userSpaceOnUse" cx="-83.538" cy="-18.881" r="9.89" id="gradient-27"><stop offset="0" style="stop-color: #bada55"/><stop offset="1" style="stop-color: #758d29"/></radialGradient><radialGradient gradientUnits="userSpaceOnUse" cx="-83.779" cy="-18.872" r="9.675" id="gradient-28"><stop offset="0" style="stop-color: #bada55"/><stop offset="1" style="stop-color: #758d29"/></radialGradient><bx:grid x="-67.662" y="42.907" width="268.348" height="185.244"/><style bx:fonts="Alata">@import url(https://fonts.googleapis.com/css2?family=Alata%3Aital%2Cwght%400%2C400&amp;display=swap);</style></defs><rect x="-565.44" width="1450.25" height="1395.44" style="fill: rgb(0, 0, 0); stroke: rgb(0, 0, 0); paint-order: stroke; visibility: hidden;" y="-178.07" transform="matrix(0.999989, -0.004753, 0, 1.000011, 12.515896, -64.675522)"/><g id="layer1" style="filter: url(&quot;#duotone-filter-0&quot;); transform-origin: -30.018px 65.234px;" transform="matrix(8.231577, -0.068196, 0.205207, 7.914904, 574.418396, -161.889496)"><g id="g26"/><path style="fill-opacity: 1; fill-rule: evenodd; stroke: rgb(255, 255, 255); stroke-width: 0.358852; stroke-linejoin: round; stroke-opacity: 0; fill: url(&quot;#gradient-7&quot;);" d="" id="path27" transform="scale(0.26458333)"/><g id="g1" transform="translate(-194.57531,79.568858)"><path style="fill-opacity: 1; fill-rule: evenodd; stroke: rgb(255, 255, 255); stroke-width: 0.316954; stroke-linejoin: round; stroke-opacity: 0; fill: url(&quot;#gradient-8&quot;);" d="M 142.543 43.561 L 146.394 13.624 L 145.914 45.958 L 107.163 44.552 L 142.543 43.561 Z" id="path15-9"/><path style="fill-opacity: 0; fill-rule: evenodd; stroke: rgb(255, 255, 255); stroke-width: 0.329774; stroke-linejoin: round; stroke-opacity: 0; fill: url(&quot;#gradient-9&quot;);" d="M 100.573 48.489 C 100.573 48.489 100.414 48.665 101.134 48.078 C 102.155 47.246 120.834 30.909 120.834 30.909 L 131.828 41.903 L 152.345 0.559 L 149.325 5.36 L 130.744 35.245 L 120.988 25.799 L 100.573 48.489 Z" id="path14-9"/><path style="fill-opacity: 1; fill-rule: evenodd; stroke: rgb(255, 255, 255); stroke-width: 0.281875; stroke-linejoin: round; stroke-opacity: 0; fill: url(&quot;#gradient-10&quot;);" d="M 109.487 9.54 L 106.84 43.985 L 104.42 5.468 L 133.808 8.4 L 109.487 9.54 Z" id="path23-9"/><path style="fill-opacity: 1; fill-rule: evenodd; stroke: rgb(255, 255, 255); stroke-width: 0.329774; stroke-linejoin: round; stroke-opacity: 0; fill: url(&quot;#gradient-11&quot;);" d="M 104.011 50.899 L 120.435 18.818 L 132.041 29.548 L 158.976 -1.657 L 131.822 25.825 L 120.216 15.752 L 104.011 50.899 Z" id="path24-1"/><path style="fill-opacity: 0; fill-rule: evenodd; stroke: rgb(255, 255, 255); stroke-width: 0.329774; stroke-linejoin: round; stroke-opacity: 0; fill: url(&quot;#gradient-12&quot;);" d="M 108.445 41.665 C 108.774 41.227 118.847 31.045 118.847 31.045 L 130.125 40.789 L 143.155 16.154" id="path28-7"/><g id="path30-9" transform="matrix(1, 0, 0, 1, 74.665016, -49.911938)"><path style="color: rgb(0, 0, 0); fill-rule: evenodd; stroke-linejoin: round; fill: url(&quot;#gradient-13&quot;);" d="m 52.456823,81.668868 c -4.450987,-3.852178 -5.55609,-4.783173 -5.666264,-4.77354 -0.136722,0.01195 -1.53537,1.402861 -6.639155,6.602401 -1.045717,1.06534 -1.901305,1.920022 -1.901305,1.899292 0,-0.03161 2.29014,-3.084816 7.416946,-9.888236 l 0.930103,-1.234273 5.333255,5.039157 c 3.89472,3.679951 5.37163,5.043192 5.47555,5.05412 0.13421,0.01411 0.755295,-0.49957 6.379965,-9.794156 3.28003,-5.420133 6.475747,-9.913521 6.487677,-9.90159 0.0218,0.02182 -12.178652,21.673482 -12.249452,21.744367 -0.0209,0.02088 -2.52615,-2.115514 -5.56732,-4.747542 z" id="path1"/><path style="color: rgb(0, 0, 0); fill-opacity: 0; fill-rule: evenodd; stroke-linejoin: round; fill: url(&quot;#gradient-14&quot;);" d="m 69.474609,64.662109 c -1.28e-4,8.9e-5 -0.0076,0.0056 -0.0078,0.0059 -4.2e-4,4.47e-4 -0.0027,0.0043 -0.0039,0.0059 -0.0023,0.0031 -0.0048,0.0054 -0.0078,0.0098 -0.0059,0.0088 -0.01471,0.02238 -0.02539,0.03906 -0.02137,0.03337 -0.05115,0.08315 -0.0918,0.148438 -0.08129,0.130584 -0.200775,0.323305 -0.353516,0.572265 -0.305482,0.497921 -0.746626,1.21823 -1.289063,2.109375 -1.084873,1.782292 -2.578721,4.24499 -4.21875,6.955078 -2.812327,4.647281 -4.304974,7.110715 -5.111328,8.410157 -0.403176,0.649721 -0.633444,1.007258 -0.771484,1.201172 -0.06902,0.09696 -0.116824,0.153068 -0.146484,0.18164 -0.02966,0.02857 -0.03498,0.02757 -0.03711,0.02734 0.01268,0.0013 -0.0017,-0.0013 -0.01758,-0.01172 -0.01584,-0.01041 -0.03795,-0.02648 -0.06641,-0.04883 C 57.269284,84.222984 57.186786,84.15383 57.0801,84.060653 56.866706,83.874193 56.551586,83.588465 56.117187,83.1875 55.248391,82.385571 53.9063,81.12509 51.958984,79.285156 L 46.625,74.246094 a 0.04024923,0.04024923 0 0 0 -0.06055,0.0039 l -0.929687,1.234375 c -2.563409,3.401717 -4.417437,5.866646 -5.63086,7.484375 -0.606711,0.808864 -1.052772,1.405644 -1.347656,1.802734 -0.147442,0.198546 -0.257294,0.34726 -0.330078,0.447266 -0.03639,0.05 -0.06373,0.08712 -0.08203,0.113281 -0.0092,0.01308 -0.01652,0.0236 -0.02148,0.03125 -0.0025,0.0038 -0.004,0.0065 -0.0059,0.0098 -9.17e-4,0.0016 -8.36e-4,0.0034 -0.002,0.0059 -5.59e-4,0.0012 -0.0019,0.0056 -0.002,0.0059 -7e-5,2.15e-4 -0.0039,0.01159 -0.0039,0.01172 0,8.1e-5 0.0039,0.01752 0.0039,0.01758 2.6e-5,5.5e-5 0.01753,0.0195 0.01758,0.01953 5.2e-5,2.7e-5 0.01945,0.0039 0.01953,0.0039 7.8e-5,10e-7 0.0097,-0.0019 0.0098,-0.002 2.07e-4,-5.1e-5 0.0095,-0.0018 0.0098,-0.002 3.11e-4,-1.56e-4 0.0027,-0.0032 0.0039,-0.0039 0.0048,-0.003 0.0079,-0.0046 0.01172,-0.0078 0.0077,-0.0064 0.01827,-0.01537 0.03125,-0.02734 0.02596,-0.02395 0.06293,-0.06037 0.111328,-0.107422 0.0968,-0.0941 0.23778,-0.232102 0.410157,-0.404297 0.344754,-0.344389 0.818864,-0.824676 1.341796,-1.357421 2.55186,-2.599736 4.177212,-4.247225 5.181641,-5.246094 0.502215,-0.499435 0.850701,-0.836174 1.080078,-1.048828 0.114689,-0.106327 0.199831,-0.182234 0.259766,-0.230469 0.02997,-0.02412 0.05339,-0.03999 0.07031,-0.05078 0.01692,-0.01079 0.03028,-0.01427 0.02344,-0.01367 -0.0086,7.5e-4 -8.64e-4,-1.13e-4 0.01172,0.0059 0.01258,0.006 0.03084,0.01579 0.05469,0.03125 0.04769,0.03091 0.117077,0.0816 0.210938,0.154297 0.187721,0.145402 0.475409,0.381901 0.898437,0.738281 0.846057,0.712761 2.233526,1.907926 4.458984,3.833985 1.520645,1.316065 2.908786,2.508553 3.917969,3.36914 0.504592,0.430294 0.913702,0.776988 1.199219,1.015625 0.142758,0.119319 0.255213,0.211576 0.332031,0.273438 0.03841,0.03093 0.06689,0.0546 0.08789,0.07031 0.0105,0.0079 0.01839,0.01307 0.02539,0.01758 0.0035,0.0023 0.0071,0.0056 0.01172,0.0078 0.0023,0.0011 0.01125,0.0019 0.01172,0.002 2.33e-4,5e-5 0.01156,0.002 0.01172,0.002 1.57e-4,-1.6e-5 0.02531,-0.01164 0.02539,-0.01172 2.77e-4,-2.76e-4 0.0047,-0.0061 0.0059,-0.0078 0.0011,-0.0017 0.0028,-0.004 0.0039,-0.0059 0.0023,-0.0037 0.0044,-0.0078 0.0078,-0.01367 0.0068,-0.01183 0.01544,-0.02918 0.02734,-0.05078 0.0238,-0.0432 0.05971,-0.106289 0.103516,-0.1875 0.08761,-0.162421 0.213475,-0.398117 0.373047,-0.697265 0.319142,-0.598296 0.770224,-1.449729 1.310547,-2.46875 1.080646,-2.038041 2.514224,-4.747622 3.945312,-7.457031 1.431089,-2.70941 2.860616,-5.417311 3.929688,-7.449219 0.534535,-1.015954 0.978601,-1.863334 1.289062,-2.457031 0.155231,-0.296849 0.276823,-0.529709 0.359375,-0.689454 0.04128,-0.07987 0.07266,-0.141799 0.09375,-0.183593 0.01055,-0.0209 0.01806,-0.03765 0.02344,-0.04883 10e-4,-0.0022 0.0011,-0.004 0.002,-0.0059 0.0014,-0.0029 0.0049,-0.0055 0.0059,-0.0078 8.04e-4,-0.0018 0.0011,-0.0034 0.002,-0.0059 8.79e-4,-0.0025 -0.0097,-0.04288 -0.0098,-0.04297 -4.7e-5,-4.7e-5 -0.05065,-0.004 -0.05078,-0.0039 z M 69.003906,65.5625 c -0.01097,0.02099 -0.01406,0.02911 -0.02539,0.05078 -0.310401,0.593581 -0.756497,1.441109 -1.291016,2.457031 -1.069038,2.031846 -2.496661,4.737885 -3.927734,7.447266 -1.431074,2.709381 -2.8647,5.421006 -3.945313,7.458984 -0.540306,1.01899 -0.993418,1.870568 -1.3125,2.46875 -0.159541,0.299092 -0.285548,0.535061 -0.373047,0.697266 -0.04375,0.0811 -0.07798,0.142746 -0.101562,0.185547 -0.0076,0.01371 -0.01222,0.0217 -0.01758,0.03125 -0.0194,-0.01465 -0.04447,-0.03578 -0.08008,-0.06445 -0.07607,-0.06126 -0.187512,-0.152327 -0.330078,-0.271485 -0.285131,-0.238314 -0.696693,-0.585427 -1.201172,-1.015625 -1.008956,-0.860394 -2.395492,-2.05318 -3.916015,-3.36914 -2.225525,-1.926116 -3.614154,-3.122566 -4.460938,-3.835938 -0.423391,-0.356686 -0.710825,-0.591451 -0.90039,-0.738281 -0.09478,-0.07341 -0.165575,-0.124999 -0.216797,-0.158203 -0.02561,-0.0166 -0.04657,-0.02862 -0.06445,-0.03711 -0.01788,-0.0085 -0.03039,-0.01563 -0.05273,-0.01367 -0.02393,0.0021 -0.03751,0.01195 -0.05859,0.02539 -0.02108,0.01344 -0.0468,0.03143 -0.07813,0.05664 -0.06266,0.05043 -0.148265,0.127381 -0.263672,0.234375 -0.230815,0.213988 -0.579522,0.551053 -1.082032,1.050781 -1.005019,0.999457 -2.629719,2.646295 -5.18164,5.246094 -0.522783,0.532593 -0.999282,1.013318 -1.34375,1.357422 -0.101681,0.101573 -0.163508,0.162538 -0.240235,0.238281 0.0582,-0.07898 0.100742,-0.135202 0.181641,-0.244141 0.294729,-0.396882 0.740983,-0.995873 1.347656,-1.804687 1.213347,-1.617628 3.067467,-4.080726 5.63086,-7.482422 l 0.902343,-1.199219 5.300782,5.009766 c 1.9474,1.840014 3.290839,3.099934 4.160156,3.902344 0.434658,0.401205 0.750358,0.687674 0.964844,0.875 0.107242,0.09366 0.189083,0.162668 0.248047,0.208984 0.02948,0.02316 0.05315,0.04018 0.07227,0.05273 0.01911,0.01256 0.02902,0.02269 0.05469,0.02539 0.03142,0.0033 0.06458,-0.0132 0.101562,-0.04883 0.03698,-0.03562 0.08402,-0.09463 0.154297,-0.193359 0.140558,-0.197451 0.371933,-0.556858 0.775391,-1.207032 0.806915,-1.300346 2.300944,-3.76286 5.113281,-8.410156 1.639999,-2.710039 3.131978,-5.170923 4.216797,-6.953125 0.52221,-0.857915 0.93659,-1.538011 1.240234,-2.033203 z" id="path2"/></g></g><g id="g24" transform="translate(44.707126,12.186047)" style="opacity: 0.0369;"/><g id="g25" transform="matrix(1, 0, 0, 1, 61.90691, 43.747066)" style="opacity: 0.0114;"><path style="fill-opacity: 1; fill-rule: evenodd; stroke: rgb(255, 255, 255); stroke-width: 0.0193791; stroke-linejoin: round; stroke-opacity: 0; filter: url(&quot;#outline-filter-0&quot;); fill: url(&quot;#gradient-22&quot;);" d="m -75.127405,-7.304964 2.378624,-19.330581 -0.296869,20.878314 -23.935337,-0.907754 z" id="path31-2-1"/><path style="fill-opacity: 0; fill-rule: evenodd; stroke: rgb(255, 255, 255); stroke-width: 0.0201627; stroke-linejoin: round; stroke-opacity: 0; filter: url(&quot;#outline-filter-0&quot;); fill: url(&quot;#gradient-23&quot;);" d="m -101.05163,-4.122704 c 0,0 -0.0981,0.113469 0.34671,-0.265579 0.63066,-0.537419 12.167883,-11.085851 12.167883,-11.085851 l 6.790815,7.09894 12.673015,-26.696024 -1.865086,3.099539 -11.477442,19.297128 -6.025655,-6.099092 z" id="path32-9-1"/><path style="fill-rule: evenodd; stroke-width: 0.0172341; stroke-linejoin: round; stroke-opacity: 0; filter: url(&quot;#outline-filter-0&quot;); paint-order: fill; stroke: rgb(177, 201, 235); fill: url(&quot;#gradient-24&quot;);" d="m -95.545314,-29.272239 -1.635069,22.241032 -1.495237,-24.870204 18.152488,1.892829 z" id="path33-8-3"/><path style="fill-opacity: 1; fill-rule: evenodd; stroke-width: 0.0201627; stroke-linejoin: round; stroke-opacity: 0; filter: url(&quot;#outline-filter-0&quot;); stroke: rgb(198, 0, 0); fill: url(&quot;#gradient-25&quot;);" d="m -98.928062,-2.566369 10.144725,-20.715141 7.16894,6.928615 16.637348,-20.149544 -16.772607,17.74574 -7.168946,-6.504415 z" id="path34-0-3"/><path style="fill-opacity: 0; fill-rule: evenodd; stroke: rgb(255, 255, 255); stroke-width: 0.0201627; stroke-linejoin: round; stroke-opacity: 0; filter: url(&quot;#outline-filter-0&quot;); fill: url(&quot;#gradient-26&quot;);" d="m -96.188892,-8.528809 c 0.202893,-0.2828 6.424991,-6.857914 6.424991,-6.857914 l 6.966039,6.292314 8.048149,-15.907536" id="path35-5-6"/><path style="color: rgb(0, 0, 0); fill-rule: evenodd; stroke-width: 0.0611409; stroke-linejoin: round; filter: url(&quot;#outline-filter-0&quot;); fill: url(&quot;#gradient-27&quot;);" d="m -84.652927,-14.926747 c -2.749277,-2.487368 -3.431875,-3.088516 -3.499927,-3.082296 -0.08445,0.0077 -0.948365,0.905834 -4.100862,4.263199 -0.645916,0.687895 -1.174394,1.239767 -1.174394,1.226381 0,-0.02041 1.414569,-1.991879 4.581286,-6.384876 l 0.574504,-0.796976 3.294235,3.253806 c 2.405684,2.37616 3.317939,3.256411 3.382128,3.263467 0.0829,0.0091 0.466529,-0.322575 3.940765,-6.324129 2.026003,-3.499803 3.999928,-6.401203 4.007297,-6.393499 0.01347,0.01409 -7.522488,13.994661 -7.566219,14.040431 -0.01291,0.01348 -1.560348,-1.365996 -3.438813,-3.065508 z" id="path36-7-7"/><path style="color: rgb(0, 0, 0); fill-opacity: 0; fill-rule: evenodd; stroke-width: 0.0611409; stroke-linejoin: round; filter: url(&quot;#outline-filter-0&quot;); fill: url(&quot;#gradient-28&quot;);" d="m -74.141411,-25.908085 c -7.9e-5,5.8e-5 -0.0047,0.0036 -0.0048,0.0038 -2.6e-4,2.88e-4 -0.0017,0.0028 -0.0024,0.0038 -0.0014,0.002 -0.003,0.0035 -0.0048,0.0063 -0.0036,0.0057 -0.0091,0.01445 -0.01568,0.02522 -0.0132,0.02155 -0.03159,0.05369 -0.0567,0.09585 -0.05021,0.08432 -0.124014,0.208759 -0.218359,0.369514 -0.188689,0.321509 -0.461174,0.786616 -0.796226,1.362032 -0.670102,1.150834 -1.59282,2.741009 -2.60583,4.490924 -1.737113,3.000769 -2.659088,4.591419 -3.157156,5.430475 -0.249033,0.419527 -0.391264,0.650391 -0.476528,0.775602 -0.04263,0.06261 -0.07216,0.09884 -0.09048,0.117285 -0.01832,0.01845 -0.02161,0.0178 -0.02292,0.01765 0.0078,8.39e-4 -0.0011,-8.39e-4 -0.01086,-0.0076 -0.0098,-0.0067 -0.02344,-0.0171 -0.04102,-0.03153 -0.03515,-0.02886 -0.08611,-0.07352 -0.152007,-0.133681 -0.131809,-0.120398 -0.326452,-0.304894 -0.594771,-0.563799 -0.536636,-0.517809 -1.365616,-1.331707 -2.568431,-2.51976 l -3.294685,-3.253744 a 0.02486107,0.0259891 0 0 0 -0.0374,0.0025 l -0.574247,0.797041 c -1.583362,2.196504 -2.728555,3.788119 -3.47806,4.832693 -0.374752,0.522287 -0.650274,0.907631 -0.832417,1.164034 -0.09107,0.128202 -0.158925,0.224227 -0.203882,0.288801 -0.02248,0.03228 -0.03937,0.05625 -0.05067,0.07315 -0.0057,0.0084 -0.0102,0.01524 -0.01327,0.02018 -0.0015,0.0025 -0.0025,0.0042 -0.0036,0.0063 -5.67e-4,10e-4 -5.17e-4,0.0022 -0.0012,0.0038 -3.46e-4,7.75e-4 -0.0012,0.0036 -0.0012,0.0038 -4.4e-5,1.38e-4 -0.0024,0.0075 -0.0024,0.0076 0,5.3e-5 0.0024,0.01131 0.0024,0.01135 1.6e-5,3.5e-5 0.01083,0.01259 0.01086,0.01261 3.2e-5,1.8e-5 0.01201,0.0025 0.01206,0.0025 4.8e-5,0 0.006,-0.0012 0.006,-0.0013 1.28e-4,-3.3e-5 0.0059,-0.0012 0.0061,-0.0013 1.92e-4,-1.01e-4 0.0017,-0.0021 0.0024,-0.0025 0.003,-0.0019 0.0049,-0.003 0.0072,-0.005 0.0048,-0.0041 0.01129,-0.0099 0.0193,-0.01765 0.01603,-0.01547 0.03887,-0.03898 0.06876,-0.06936 0.05979,-0.06076 0.146871,-0.14987 0.253345,-0.261057 0.212947,-0.222373 0.505794,-0.532496 0.828798,-0.876492 1.576228,-1.678661 2.580173,-2.742452 3.200586,-3.387426 0.310208,-0.322487 0.52546,-0.539921 0.667141,-0.677233 0.07084,-0.06865 0.123431,-0.117669 0.160452,-0.148814 0.01851,-0.01557 0.03298,-0.02582 0.04343,-0.03279 0.01045,-0.007 0.0187,-0.0092 0.01448,-0.0088 -0.0053,4.84e-4 -5.33e-4,-7.3e-5 0.0072,0.0038 0.0078,0.0039 0.01905,0.0102 0.03378,0.02018 0.02946,0.01996 0.07232,0.05269 0.130292,0.09963 0.115951,0.09389 0.29365,0.246595 0.554945,0.476711 0.522591,0.460233 1.3796,1.231956 2.754217,2.475621 0.93927,0.849789 1.796694,1.619784 2.420044,2.175468 0.311676,0.277843 0.564374,0.501705 0.740732,0.655794 0.08818,0.07705 0.157639,0.136615 0.205088,0.17656 0.02372,0.01997 0.04132,0.03525 0.05429,0.0454 0.0065,0.0051 0.01136,0.0084 0.01568,0.01135 0.0022,0.0015 0.0044,0.0036 0.0072,0.005 0.0014,7.11e-4 0.0069,0.0012 0.0072,0.0013 1.44e-4,3.2e-5 0.0071,0.0013 0.0072,0.0013 9.7e-5,-10e-6 0.01563,-0.0075 0.01568,-0.0076 1.71e-4,-1.78e-4 0.0029,-0.0039 0.0036,-0.005 6.8e-4,-0.0011 0.0017,-0.0026 0.0024,-0.0038 0.0014,-0.0024 0.0027,-0.005 0.0048,-0.0088 0.0042,-0.0076 0.0095,-0.01884 0.01689,-0.03279 0.0147,-0.0279 0.03688,-0.06863 0.06394,-0.12107 0.05411,-0.104876 0.131859,-0.257066 0.230423,-0.450227 0.197127,-0.386322 0.475751,-0.936096 0.809496,-1.594082 0.667492,-1.315972 1.552982,-3.065561 2.436933,-4.815038 0.883953,-1.749477 1.766941,-3.497981 2.427283,-4.809993 0.330171,-0.656005 0.604461,-1.203162 0.796226,-1.586515 0.09588,-0.191677 0.170987,-0.342035 0.221978,-0.445183 0.0255,-0.05157 0.04488,-0.09156 0.05791,-0.118547 0.0065,-0.01349 0.01115,-0.02431 0.01448,-0.03153 6.18e-4,-0.0014 6.8e-4,-0.0026 0.0012,-0.0038 8.64e-4,-0.0019 0.003,-0.0036 0.0036,-0.005 4.97e-4,-0.0012 6.79e-4,-0.0022 0.0012,-0.0038 5.43e-4,-0.0016 -0.006,-0.02769 -0.0061,-0.02775 -2.9e-5,-3e-5 -0.03129,-0.0026 -0.03137,-0.0025 z m -0.290743,0.581386 c -0.0068,0.01355 -0.0087,0.0188 -0.01568,0.03279 -0.191728,0.383278 -0.467272,0.930531 -0.797433,1.586516 -0.660321,1.311972 -1.542133,3.059273 -2.426075,4.808732 -0.883943,1.749459 -1.769463,3.500367 -2.436934,4.816298 -0.333735,0.657966 -0.613613,1.207834 -0.810703,1.594082 -0.09855,0.193125 -0.176376,0.345492 -0.230423,0.450228 -0.02702,0.05237 -0.04817,0.09217 -0.06273,0.119809 -0.0047,0.0089 -0.0075,0.01401 -0.01086,0.02018 -0.01198,-0.0095 -0.02747,-0.0231 -0.04946,-0.04162 -0.04699,-0.03956 -0.115822,-0.09836 -0.203882,-0.175299 -0.176119,-0.15388 -0.430332,-0.378013 -0.741937,-0.655793 -0.62321,-0.55556 -1.479644,-1.325747 -2.418837,-2.175469 -1.374659,-1.243701 -2.232385,-2.016254 -2.755425,-2.476881 -0.261519,-0.230314 -0.439061,-0.381903 -0.556151,-0.476711 -0.05854,-0.0474 -0.102272,-0.08071 -0.133911,-0.102153 -0.01582,-0.01072 -0.02876,-0.01848 -0.03981,-0.02396 -0.01104,-0.0055 -0.01877,-0.01009 -0.03257,-0.0088 -0.01478,0.0014 -0.02317,0.0077 -0.03619,0.0164 -0.01302,0.0087 -0.02891,0.02029 -0.04826,0.03657 -0.0387,0.03256 -0.09158,0.08225 -0.162865,0.151337 -0.142569,0.138173 -0.357958,0.355818 -0.668347,0.678494 -0.620778,0.645354 -1.62432,1.708724 -3.200586,3.387426 -0.322912,0.343897 -0.617235,0.654304 -0.830005,0.876493 -0.06281,0.06559 -0.100995,0.104951 -0.148388,0.153859 0.03595,-0.051 0.06223,-0.0873 0.112196,-0.157643 0.182047,-0.256268 0.457689,-0.643039 0.832417,-1.165294 0.749458,-1.044509 1.894708,-2.634942 3.47806,-4.831432 l 0.557357,-0.774341 3.274178,3.234827 c 1.202866,1.188105 2.032679,2.001641 2.569637,2.519761 0.268479,0.25906 0.46348,0.444034 0.595963,0.564991 0.06624,0.06048 0.116793,0.105036 0.153214,0.134942 0.01821,0.01495 0.03283,0.02594 0.04464,0.03405 0.0118,0.0081 0.01792,0.01465 0.03378,0.01639 0.01941,0.0021 0.03989,-0.0085 0.06273,-0.03153 0.02284,-0.023 0.0519,-0.0611 0.09531,-0.124853 0.08682,-0.127495 0.229735,-0.359566 0.478942,-0.779386 0.498414,-0.839639 1.421243,-2.429695 3.158362,-5.430474 1.012992,-1.749884 1.934554,-3.338887 2.604623,-4.489663 0.322558,-0.553959 0.578512,-0.9931 0.766066,-1.312848 z" id="path37-1-7"/></g></g><text style="font-family: Alata; font-size: 34.6164px; stroke: rgb(0, 0, 0); white-space: pre;" transform="matrix(1.483679, -0.007051, 0, 1.497085, -42.746437, -233.069839)" x="73.455" y="454.554">NoCAPTCHA Ai</text></svg>